<svg xmlns="http://www.w3.org/2000/svg" xml:space="preserve" style="fill-rule:evenodd;clip-rule:evenodd;stroke-linejoin:round;stroke-miterlimit:2" viewBox="0 0 971 540"><path d="M.012 0h970v540h-970z" style="fill:none"/><clipPath id="a"><path d="M.012 0h970v540h-970z"/></clipPath><g clip-path="url(#a)"><path d="M970.165 408.339V540h-970V407.881c95.572-5.38 191.72 2.409 287.433 2.409 108.418 0 166.832-3.69 253.331-9.277 67.038 4.96 133.536 6.487 199.854 6.868 50.146 1.252 89.504-1.72 118.069-1.72 23.568 0 61.933 2.178 111.313 2.178" style="fill:#7a271b"/><path d="M970.165 439.981s-13.994 1.313-42.539-.984c-28.544-2.297-102.809 13.714-149.707 16.373 0 0 119.646-3.387 151.223-2.21 31.576 1.177 41.023 2.706 41.023 2.706zM152.383 483.09s83.45-4.157 141.854-4.383 114.064 3.338 146.622 1.556c0 0-117.3 5.742-145.867 5.313s-142.609-2.486-142.609-2.486M385.436 455.866s11.133-.588 51.722 0c40.59.589 68.453 0 68.453 0s-50.973-7.308-64.752-8.547-55.423 8.547-55.423 8.547M21.317 512.142s18.797-.589 87.331 0c68.535.588 115.58 0 115.58 0s-86.065-7.308-109.33-8.547-93.581 8.547-93.581 8.547M627.555 462.051s44.181 1.063 74.922 8.455 14.053 20.672-50.32 23.225c-64.975 2.577-166.992 9.755-166.992 9.755s124.533-.272 167.369-1.121c52.02-1.03 101.84-21.41 71.102-31.859-30.738-10.448-96.081-8.455-96.081-8.455M440.859 412.453s104.552-2.782 110.242-1.299c5.691 1.483-57.401 6.466-76.1 10.197-18.7 3.73-8.487 8.828 47.418 9.713s121.721 1.796 139.2 3.967c0 0-119.568-7.482-144.939-8.514s2.175-7.089 30.897-9.615c28.723-2.527 15.281-10.525-2.684-10.231-48.606.796-104.034 5.782-104.034 5.782M32.833 437.419s38.755-.974 67.527-4.874c28.773-3.899 51.241 1.15 67.906 1.015s52.497 1.42 52.497 1.42-32.63 3.451-55.114 3.502-50.386-4.757-68.214-1.117-64.602.054-64.602.054" style="fill:#a23f1b"/></g></svg>