<svg xmlns="http://www.w3.org/2000/svg" xml:space="preserve" style="fill-rule:evenodd;clip-rule:evenodd;stroke-linejoin:round;stroke-miterlimit:2" viewBox="0 0 971 540"><path d="M.176 0h970v540h-970z" style="fill:none"/><path d="M111.946 258.092.662 251.061l77.946-5.658s-4.545-6.46 11.42-7.848 74.67-1.323 74.67-1.323l-55.074-3.051c13.821-1.933 51.577-6.046 51.577-6.046 15.526-8.298 35.6-1.474 35.6-1.474 4.045-5.863 10.408-7.834 19.422-5.354 0 0 3.361-12.121 17.275-15.697 13.598-3.494 27.145 6.163 27.145 6.163s-2.337-9.893 9.72-15.581c15.515-7.319 26.481 5.367 26.481 5.367 13.688-5.917 23.871 4.371 23.871 4.371 11.618-13.274 34.198 3.05 31.067 9.537 11.912-5.179 21.799 1.47 26.246 12.152 12.876-1.509 17.41 4.799 18.339 14.484 15.563-4.623 20.649 4.696 26.619 14.382 13.791-4.79 26.071-2.024 36.71 8.942l40.98 9.982-120.877 5.796 42.571 7.325-182.461 2.946 40.384-8.984-120.433 2.154 46.305-14.935s-104.225 5.665-111.93 6.155c4.874-.614 33.71-9.499 33.71-9.499 2.595-1.865 13.47-3.82 13.47-3.82l-62.476 2.006zm-17.711 16.774q-.219.027-.372.032c-.179.006-.045-.006.372-.032" style="fill:#ffc721"/><path d="M274.463 193.671c13.311-3.603 22.38 6.888 22.38 6.888 13.688-5.917 23.871 4.371 23.871 4.371 10.618-12.132 30.392.459 31.327 7.669-1.479-.261-4.661-1.183-11.177-4.223-10.524-4.909-22.547 4.294-22.547 4.294s-2.834-3.903-10.008-6.755c-7.175-2.852-15.813 1.174-15.813 1.174s.49-3.967-6.726-9.575c-3.159-2.455-7.464-3.474-11.307-3.843" style="fill:#ffcf41"/></svg>