<svg xmlns="http://www.w3.org/2000/svg" xml:space="preserve" style="fill-rule:evenodd;clip-rule:evenodd;stroke-linejoin:round;stroke-miterlimit:2" viewBox="0 0 970 540"><path d="M0 0h970v540H0z" style="fill:none"/><path d="M668.247 208.745s.986-20.256 20.891-16.783c0 0 2.057-13.445 18.63-18.316 0 0-.57-19.391 15.685-23.863s22.115 5.251 22.115 5.251 2.891-19.27 17.757-25.432 28.655 6.092 28.655 6.092 6.65-21.897 35.129-21.897c30.189 0 34.216 19.748 34.216 19.748 17.266-7.112 38.931 6.472 34.374 23.786 14.367-.632 25.417 4.266 29.654 20.519 12.011-8.185 25.24 6.794 19.551 20.406L970 208.745z" style="fill:#ffc721"/></svg>