<?xml version="1.0" encoding="UTF-8" standalone="no"?><!DOCTYPE svg PUBLIC "-//W3C//DTD SVG 1.1//EN" "http://www.w3.org/Graphics/SVG/1.1/DTD/svg11.dtd"><svg width="100%" height="100%" viewBox="0 0 971 540" version="1.1" xmlns="http://www.w3.org/2000/svg" xmlns:xlink="http://www.w3.org/1999/xlink" xml:space="preserve" xmlns:serif="http://www.serif.com/" style="fill-rule:evenodd;clip-rule:evenodd;stroke-linejoin:round;stroke-miterlimit:2;"><rect id="mountain-5" serif:id="mountain 5" x="0.352" y="0" width="970" height="540" style="fill:none;"/><g><path d="M342.666,201.133c-4.925,2.859 78.023,-9.236 132.41,-32.173c0,0 30.771,2.209 53.743,-12.544c0,0 29.218,13.336 43.774,15.217c14.556,1.881 15.468,-0.438 21.915,0.346c6.447,0.784 14.35,-0.382 21.799,-2.978c7.45,-2.595 34.709,16.896 57.268,18.112c22.559,1.215 43.758,-4.816 50.059,-4.374c6.301,0.442 12.556,5.783 31.08,3.827c18.524,-1.955 47.839,-10.782 50.526,-10.287c2.687,0.495 15.918,9.884 19.893,8.589c3.976,-1.294 12.768,-3.336 12.768,-3.336c-0,0 27.186,13.997 63.892,23.207l-0,80.166l-559.127,0l-0,-83.772Z" style="fill:#f4921b;"/><path d="M528.316,206.382c-2.662,5.645 -10.279,15.159 -31.947,20.202c0,-0 8.703,1.356 23.795,1.86c-41.496,16.699 -83.925,14.227 -107.733,10.686c20.377,-5.276 42.867,-12.183 62.645,-20.524c0,0 30.324,2.177 53.24,-12.224Z" style="fill:#fba41b;"/></g></svg>