<?xml version="1.0" encoding="UTF-8" standalone="no"?><!DOCTYPE svg PUBLIC "-//W3C//DTD SVG 1.1//EN" "http://www.w3.org/Graphics/SVG/1.1/DTD/svg11.dtd"><svg width="100%" height="100%" viewBox="0 0 971 540" version="1.1" xmlns="http://www.w3.org/2000/svg" xmlns:xlink="http://www.w3.org/1999/xlink" xml:space="preserve" xmlns:serif="http://www.serif.com/" style="fill-rule:evenodd;clip-rule:evenodd;stroke-linejoin:round;stroke-miterlimit:2;"><rect id="mountain-2" serif:id="mountain 2" x="0.238" y="0" width="970" height="540" style="fill:none;"/><clipPath id="_clip1"><rect x="0.238" y="0" width="970" height="540"/></clipPath><g clip-path="url(#_clip1)"><path d="M970.388,284.905l-661.438,0l9.722,-2.904l13.75,-11.262c0,-0 12.155,-0.398 17.106,-3.24c4.95,-2.842 12.914,-10.927 12.914,-10.927c0,-0 10.542,-3.897 15.123,-7.556l17.892,-1.309l26.303,2.886c14.57,-3.619 47.019,-19.572 44.198,-19.625c20.96,2.173 40.227,-5.106 47.197,-13.349c29.852,1.702 54.819,-3.147 76.281,-12.696c3.203,4.812 93.012,0.713 97.073,-3.506l23.544,4.349c-0,-0 19.267,8.13 44.196,8.624c-0,-0 64.822,-24.149 90.999,-39.471c0,0 78.805,12.527 125.14,9.513l0,100.473Z" style="fill:#a33f1b;"/><clipPath id="_clip2"><path d="M970.388,284.905l-661.438,0l9.722,-2.904l13.75,-11.262c0,-0 12.155,-0.398 17.106,-3.24c4.95,-2.842 12.914,-10.927 12.914,-10.927c0,-0 10.542,-3.897 15.123,-7.556l17.892,-1.309l26.303,2.886c14.57,-3.619 47.019,-19.572 44.198,-19.625c20.96,2.173 40.227,-5.106 47.197,-13.349c29.852,1.702 54.819,-3.147 76.281,-12.696c3.203,4.812 93.012,0.713 97.073,-3.506l23.544,4.349c-0,-0 19.267,8.13 44.196,8.624c-0,-0 64.822,-24.149 90.999,-39.471c0,0 78.805,12.527 125.14,9.513l0,100.473Z"/></clipPath><g clip-path="url(#_clip2)"><path d="M329.324,268.311c-0,-0 8.09,5.156 21.304,-0c13.213,-5.156 14.128,-7.819 14.128,-7.819l-4.099,6.301c-0,-0 6.69,-4.439 10.17,-8.892c3.48,-4.454 7.02,-10.25 7.02,-10.25l-48.523,20.66Z" style="fill:#b34512;"/><path d="M420.301,250.337l30.701,3.969l-14.716,-4.729c-0,-0 8.451,-2.19 15.878,-6.089l-3.473,3.481c0,0 15.619,-7.908 17.726,-17.057c2.107,-9.149 -46.116,20.425 -46.116,20.425Z" style="fill:#b34512;"/><path d="M486.768,228.156c-0,-0 11.275,1.362 21.976,-3.093c0,-0 -9.603,6.714 -10.237,7.012c-0.635,0.298 11.249,-3.919 18.514,-11.291c7.265,-7.372 1.16,-7.586 1.16,-7.586l-31.413,14.958Z" style="fill:#b34512;"/></g></g></svg>