<?xml version="1.0" encoding="UTF-8" standalone="no"?><!DOCTYPE svg PUBLIC "-//W3C//DTD SVG 1.1//EN" "http://www.w3.org/Graphics/SVG/1.1/DTD/svg11.dtd"><svg width="100%" height="100%" viewBox="0 0 970 540" version="1.1" xmlns="http://www.w3.org/2000/svg" xmlns:xlink="http://www.w3.org/1999/xlink" xml:space="preserve" xmlns:serif="http://www.serif.com/" style="fill-rule:evenodd;clip-rule:evenodd;stroke-linejoin:round;stroke-miterlimit:2;"><rect id="mountain-4" serif:id="mountain 4" x="0.002" y="0" width="970" height="540" style="fill:none;"/><g><path d="M241.604,239.945c0,0 23.168,-3.808 45.957,-25.135c0,-0 13.852,1.268 21.407,-0.42c0,0 16.186,-10.535 18.909,-12.358c-0,0 18.704,-0.179 35.163,-6.026c16.46,-5.847 26.499,-12.064 26.499,-12.064l12.794,8.087l14.073,-3.147c0,-0 19.934,14.313 38.717,16.638c18.782,2.324 33.575,2.107 33.575,2.107l12.392,9.067c0,0 12.628,-0.481 20.186,-0.791l18.283,6.584l12.034,-1.664c-0,-0 108.437,58.58 182.439,64.082l-492.428,0l0,-44.96Z" style="fill:#ec811b;"/><path d="M324.057,249.421c1.768,-1.157 3.173,-2.081 3.82,-2.514c-0,-0 18.704,-0.179 35.163,-6.026c16.46,-5.848 26.499,-12.064 26.499,-12.064l3.764,2.379c-11.228,13.402 -27.051,18.742 -27.051,18.742l5.699,2.979c-0,-0 -17.838,6.334 -30.432,4.181c-9.915,-1.694 -15.283,-5.657 -17.462,-7.677Z" style="fill:#f8971b;"/></g></svg>