<svg xmlns="http://www.w3.org/2000/svg" xml:space="preserve" style="fill-rule:evenodd;clip-rule:evenodd;stroke-linejoin:round;stroke-miterlimit:2" viewBox="0 0 971 540"><path d="M.249 0h970v540h-970z" style="fill:none"/><clipPath id="a"><path d="M.249 0h970v540h-970z"/></clipPath><g clip-path="url(#a)"><path d="M.249 285.135h970V540.23h-970z" style="fill:url(#b)"/><path d="M.249 282.968h970v257.261h-970z" style="fill:url(#c)"/><path d="M387.878 314.39s71.503 5.847 107.262 11.236c0 0 26.541-.771 46.355 4.381 0 0 25.201-4.657 37.756-5.314s13.342.153 18.902-.121 12.378.133 18.803 1.04c6.425.906 29.937-5.901 49.395-6.325s37.743 1.681 43.178 1.527 10.83-2.019 26.807-1.336c15.977.682 41.262 3.765 43.58 3.592s13.729-3.452 17.158-2.999 11.013 1.165 11.013 1.165 20.931-4.888 52.591-8.105l2.517-27.996H380.932z" style="fill:#ffaf1b"/><path d="M283.359 305.981s19.248 1.765 38.18 11.654c0 0 11.507-.588 17.784.194 0 0 13.446 4.885 15.708 5.73 0 0 15.539.083 29.213 2.794s22.013 5.593 22.013 5.593l10.63-3.749 11.691 1.459s16.56-6.636 32.164-7.714c15.603-1.078 27.893-.977 27.893-.977l10.295-4.204s10.491.223 16.77.367l15.189-3.053 9.996.772s90.086-27.161 151.564-29.712h-409.09z" style="fill:#f4921b"/><path d="M25.969 285.135h497.463s-67.604 13.444-79.999 18.445c0 0-55.245 5.038-71.365 6.126s-76.709 10.146-76.709 10.146-69.687-7.436-92.597-7.711L151.904 301.9c-21.857-1.475-38.841-2.025-54.691-2.36-30.679-8.49-50.223-11.055-71.244-14.405" style="fill:#ec811b"/><path d="M970.249 285.135H308.811l9.721 1.085 13.751 4.208s12.155.149 17.105 1.211 12.915 4.083 12.915 4.083 10.542 1.456 15.123 2.824l17.892.489 26.303-1.079c14.57 1.353 47.019 7.314 44.198 7.334 20.96-.812 40.226 1.908 47.196 4.988 29.853-.636 54.82 1.176 76.281 4.744 3.204-1.798 93.013-.266 97.074 1.31l23.543-1.625s19.267-3.038 44.196-3.222c0 0 64.823 9.023 91 14.749 0 0 78.805-4.681 125.14-3.555z" style="fill:#d66e1c"/><path d="M970.249 311.788c-18.853-.755-35.644-.438-51.359.439-20.386-2.505-41.289-4.76-62.609-6.812 0 0-47.444-.209-46.653 0-16.659-4.092-30.208-6.237-42.856-7.82-35.357-1.626-57.252-1.972-78.52-2.259 0 0-64.794-9.422-93.75-10.201h375.747z" style="fill:#9a3a1b"/><ellipse cx="316.005" cy="343.768" rx="34.63" ry="17.359" style="fill:#ffe371;fill-opacity:.27"/><ellipse cx="316.005" cy="343.768" rx="31.463" ry="15.771" style="fill:#ffe371;fill-opacity:.27"/><ellipse cx="316.005" cy="343.768" rx="28.295" ry="14.183" style="fill:#ffe371;fill-opacity:.44"/><ellipse cx="316.005" cy="343.768" rx="25.907" ry="12.986" style="fill:#ffe371"/><path d="m97.175 286.953.022 2.21-3.938 2.526H47.805V285.8l7.353.017 1.905 1.04z" style="fill:#7a271b"/><path d="m92.806 280.82 3.116 8.031H84.437v-8.031zM78.24 280.229h1.819v8.031H78.24z" style="fill:#7a271b"/><path d="M89.49 278.641h1.819v8.031H89.49zM63.732 280.229h1.819v8.031h-1.819zM70.986 280.229h1.819v8.031h-1.819zM56.478 280.229h1.819v8.031h-1.819z" style="fill:#7a271b"/><path d="M79.617 283.31h-8.046v-1.306h8.046zM90.18 282.004h-8.046v-1.305h8.046zM65.109 283.31h-8.046v-1.306h8.046z" style="fill:#7a271b"/><path d="M47.805 291.689h45.816v5.813H47.805z" style="fill:url(#d)"/><path d="m153.732 281.479.017 1.72-3.066 1.966h-35.381v-4.584l5.723.014 1.484.809z" style="fill:#7a271b"/><path d="m150.331 276.705 2.425 6.251h-8.94v-6.251z" style="fill:#7a271b"/><path d="M147.749 275.009h1.416v6.252h-1.416z" style="fill:#7a271b"/><path d="M148.286 277.627h-6.262v-1.017h6.262z" style="fill:#7a271b"/><path d="M115.302 285.114h35.913v5.813h-35.913z" style="fill:url(#e)"/><path d="m292.473 301.656.026 2.65-4.723 3.028h-54.505v-7.061l8.817.021 2.285 1.246z" style="fill:#7a271b"/><path d="m287.233 294.301 3.737 9.63h-13.772v-9.63zM269.766 293.592h2.181v9.631h-2.181z" style="fill:#7a271b"/><path d="M283.257 291.689h2.181v9.631h-2.181zM252.37 293.592h2.181v9.631h-2.181zM261.068 293.592h2.181v9.631h-2.181zM243.671 293.592h2.181v9.631h-2.181z" style="fill:#7a271b"/><path d="M271.417 297.287h-9.647v-1.566h9.647zM284.084 295.721h-9.648v-1.565h9.648zM254.021 297.287h-9.648v-1.566h9.648z" style="fill:#7a271b"/><path d="M233.271 307.287h54.757v5.813h-54.757z" style="fill:url(#f)"/><path d="M187.82 285.114h38.465v5.813H187.82z" style="fill:url(#g)"/><path d="M187.923 281.786h-2.508v-6.655h40.871v6.655l-3.84 3.328h-34.523z" style="fill:#7a271b"/><path d="M196.654 271.867h4.355v5.287h-4.355z" style="fill:#7a271b"/><path d="M198.831 273.18h20.662v3.036h-20.662z" style="fill:#7a271b"/><path d="M209.162 270.81h2.799v3.888h-2.799zM213.617 270.81h2.799v3.888h-2.799z" style="fill:#7a271b"/></g><defs><linearGradient id="b" x1="0" x2="1" y1="0" y2="0" gradientTransform="matrix(0 -93.9409 92.8622 0 492.807 402.521)" gradientUnits="userSpaceOnUse"><stop offset="0" style="stop-color:#fbbc23;stop-opacity:1"/><stop offset="1" style="stop-color:#ffe373;stop-opacity:1"/></linearGradient><linearGradient id="c" x1="0" x2="1" y1="0" y2="0" gradientTransform="matrix(0 -132.957 94.7312 0 485.249 411.599)" gradientUnits="userSpaceOnUse"><stop offset="0" style="stop-color:#adf2ff;stop-opacity:.46"/><stop offset=".48" style="stop-color:#c0d8c2;stop-opacity:.34"/><stop offset="1" style="stop-color:#f4921b;stop-opacity:.01"/></linearGradient><linearGradient id="d" x1="0" x2="1" y1="0" y2="0" gradientTransform="rotate(91.046 -103.948 180.789)scale(7.58715)" gradientUnits="userSpaceOnUse"><stop offset="0" style="stop-color:#7a271b;stop-opacity:.55"/><stop offset="1" style="stop-color:#7a271b;stop-opacity:.04"/></linearGradient><linearGradient id="e" x1="0" x2="1" y1="0" y2="0" gradientTransform="rotate(91.727 -71.238 205.375)scale(6.12941)" gradientUnits="userSpaceOnUse"><stop offset="0" style="stop-color:#7a271b;stop-opacity:.55"/><stop offset="1" style="stop-color:#7a271b;stop-opacity:.04"/></linearGradient><linearGradient id="f" x1="0" x2="1" y1="0" y2="0" gradientTransform="rotate(87.883 -30.64 283.249)scale(8.2015)" gradientUnits="userSpaceOnUse"><stop offset="0" style="stop-color:#7a271b;stop-opacity:.55"/><stop offset="1" style="stop-color:#7a271b;stop-opacity:.04"/></linearGradient><linearGradient id="g" x1="0" x2="1" y1="0" y2="0" gradientTransform="rotate(84.59 -51.002 253.619)scale(10.23088)" gradientUnits="userSpaceOnUse"><stop offset="0" style="stop-color:#7a271b;stop-opacity:.55"/><stop offset="1" style="stop-color:#7a271b;stop-opacity:.04"/></linearGradient></defs></svg>