<?xml version="1.0" encoding="UTF-8" standalone="no"?><!DOCTYPE svg PUBLIC "-//W3C//DTD SVG 1.1//EN" "http://www.w3.org/Graphics/SVG/1.1/DTD/svg11.dtd"><svg width="100%" height="100%" viewBox="0 0 971 540" version="1.1" xmlns="http://www.w3.org/2000/svg" xmlns:xlink="http://www.w3.org/1999/xlink" xml:space="preserve" xmlns:serif="http://www.serif.com/" style="fill-rule:evenodd;clip-rule:evenodd;stroke-linejoin:round;stroke-miterlimit:2;"><rect id="beach" x="0.012" y="0" width="970" height="540" style="fill:none;"/><clipPath id="_clip1"><rect x="0.012" y="0" width="970" height="540"/></clipPath><g clip-path="url(#_clip1)"><g><path d="M970.165,408.339l-0,131.661l-970,0l-0,-132.119c95.572,-5.38 191.72,2.409 287.433,2.409c108.418,-0 166.832,-3.69 253.331,-9.277c67.038,4.96 133.536,6.487 199.854,6.868c50.146,1.252 89.504,-1.72 118.069,-1.72c23.568,0 61.933,2.178 111.313,2.178Z" style="fill:#7a271b;"/><path d="M970.165,439.981c-0,-0 -13.994,1.313 -42.539,-0.984c-28.544,-2.297 -102.809,13.714 -149.707,16.373c-0,-0 119.646,-3.387 151.223,-2.21c31.576,1.177 41.023,2.706 41.023,2.706l-0,-15.885Z" style="fill:#a23f1b;"/><path d="M152.383,483.09c0,-0 83.45,-4.157 141.854,-4.383c58.404,-0.226 114.064,3.338 146.622,1.556c0,-0 -117.3,5.742 -145.867,5.313c-28.566,-0.43 -142.609,-2.486 -142.609,-2.486Z" style="fill:#a23f1b;"/><path d="M385.436,455.866c0,0 11.133,-0.588 51.722,0c40.59,0.589 68.453,0 68.453,0c-0,0 -50.973,-7.308 -64.752,-8.547c-13.778,-1.239 -55.423,8.547 -55.423,8.547Z" style="fill:#a23f1b;"/><path d="M21.317,512.142c0,-0 18.797,-0.589 87.331,-0c68.535,0.588 115.58,-0 115.58,-0c-0,-0 -86.065,-7.308 -109.33,-8.547c-23.266,-1.239 -93.581,8.547 -93.581,8.547Z" style="fill:#a23f1b;"/><path d="M627.555,462.051c-0,0 44.181,1.063 74.922,8.455c30.741,7.392 14.053,20.672 -50.32,23.225c-64.975,2.577 -166.992,9.755 -166.992,9.755c-0,0 124.533,-0.272 167.369,-1.121c52.02,-1.03 101.84,-21.41 71.102,-31.859c-30.738,-10.448 -96.081,-8.455 -96.081,-8.455Z" style="fill:#a23f1b;"/><path d="M440.859,412.453c0,-0 104.552,-2.782 110.242,-1.299c5.691,1.483 -57.401,6.466 -76.1,10.197c-18.7,3.73 -8.487,8.828 47.418,9.713c55.905,0.885 121.721,1.796 139.2,3.967c0,-0 -119.568,-7.482 -144.939,-8.514c-25.371,-1.032 2.175,-7.089 30.897,-9.615c28.723,-2.527 15.281,-10.525 -2.684,-10.231c-48.606,0.796 -104.034,5.782 -104.034,5.782Z" style="fill:#a23f1b;"/><path d="M32.833,437.419c-0,-0 38.755,-0.974 67.527,-4.874c28.773,-3.899 51.241,1.15 67.906,1.015c16.665,-0.135 52.497,1.42 52.497,1.42c-0,-0 -32.63,3.451 -55.114,3.502c-22.484,0.051 -50.386,-4.757 -68.214,-1.117c-17.827,3.64 -64.602,0.054 -64.602,0.054Z" style="fill:#a23f1b;"/></g></g></svg>