<?xml version="1.0" encoding="UTF-8" standalone="no"?><!DOCTYPE svg PUBLIC "-//W3C//DTD SVG 1.1//EN" "http://www.w3.org/Graphics/SVG/1.1/DTD/svg11.dtd"><svg width="100%" height="100%" viewBox="0 0 971 540" version="1.1" xmlns="http://www.w3.org/2000/svg" xmlns:xlink="http://www.w3.org/1999/xlink" xml:space="preserve" xmlns:serif="http://www.serif.com/" style="fill-rule:evenodd;clip-rule:evenodd;stroke-linejoin:round;stroke-miterlimit:2;"><rect id="cloud-1" serif:id="cloud 1" x="0.176" y="0" width="970" height="540" style="fill:none;"/><g><path d="M111.946,258.092l-111.284,-7.031l77.946,-5.658c-0,-0 -4.545,-6.46 11.42,-7.848c15.965,-1.388 74.67,-1.323 74.67,-1.323l-55.074,-3.051c13.821,-1.933 51.577,-6.046 51.577,-6.046c15.526,-8.298 35.6,-1.474 35.6,-1.474c4.045,-5.863 10.408,-7.834 19.422,-5.354c-0,0 3.361,-12.121 17.275,-15.697c13.598,-3.494 27.145,6.163 27.145,6.163c-0,0 -2.337,-9.893 9.72,-15.581c15.515,-7.319 26.481,5.367 26.481,5.367c13.688,-5.917 23.871,4.371 23.871,4.371c11.618,-13.274 34.198,3.05 31.067,9.537c11.912,-5.179 21.799,1.47 26.246,12.152c12.876,-1.509 17.41,4.799 18.339,14.484c15.563,-4.623 20.649,4.696 26.619,14.382c13.791,-4.79 26.071,-2.024 36.71,8.942l40.98,9.982l-120.877,5.796l42.571,7.325l-182.461,2.946l40.384,-8.984l-120.433,2.154l46.305,-14.935c0,-0 -104.225,5.665 -111.93,6.155c4.874,-0.614 33.71,-9.499 33.71,-9.499c2.595,-1.865 13.47,-3.82 13.47,-3.82l-62.476,2.006l33.007,-5.461Zm-17.711,16.774c-0.146,0.018 -0.27,0.029 -0.372,0.032c-0.179,0.006 -0.045,-0.006 0.372,-0.032Z" style="fill:#ffc721;"/><path d="M274.463,193.671c13.311,-3.603 22.38,6.888 22.38,6.888c13.688,-5.917 23.871,4.371 23.871,4.371c10.618,-12.132 30.392,0.459 31.327,7.669c-1.479,-0.261 -4.661,-1.183 -11.177,-4.223c-10.524,-4.909 -22.547,4.294 -22.547,4.294c-0,-0 -2.834,-3.903 -10.008,-6.755c-7.175,-2.852 -15.813,1.174 -15.813,1.174c0,-0 0.49,-3.967 -6.726,-9.575c-3.159,-2.455 -7.464,-3.474 -11.307,-3.843Z" style="fill:#ffcf41;"/></g></svg>