<svg xmlns="http://www.w3.org/2000/svg" xml:space="preserve" style="fill-rule:evenodd;clip-rule:evenodd;stroke-linejoin:round;stroke-miterlimit:2" viewBox="0 0 971 540"><path d="M.352 0h970v540h-970z" style="fill:none"/><path d="M342.666 201.133c-4.925 2.859 78.023-9.236 132.41-32.173 0 0 30.771 2.209 53.743-12.544 0 0 29.218 13.336 43.774 15.217s15.468-.438 21.915.346 14.35-.382 21.799-2.978c7.45-2.595 34.709 16.896 57.268 18.112s43.758-4.816 50.059-4.374 12.556 5.783 31.08 3.827c18.524-1.955 47.839-10.782 50.526-10.287s15.918 9.884 19.893 8.589 12.768-3.336 12.768-3.336 27.186 13.997 63.892 23.207v80.166H342.666z" style="fill:#f4921b"/><path d="M528.316 206.382c-2.662 5.645-10.279 15.159-31.947 20.202 0 0 8.703 1.356 23.795 1.86-41.496 16.699-83.925 14.227-107.733 10.686 20.377-5.276 42.867-12.183 62.645-20.524 0 0 30.324 2.177 53.24-12.224" style="fill:#fba41b"/></svg>