<svg xmlns="http://www.w3.org/2000/svg" xml:space="preserve" style="fill-rule:evenodd;clip-rule:evenodd;stroke-linejoin:round;stroke-miterlimit:2" viewBox="0 0 971 540"><path d="M.238 0h970v540h-970z" style="fill:none"/><clipPath id="a"><path d="M.238 0h970v540h-970z"/></clipPath><g clip-path="url(#a)"><path d="M970.388 284.905H308.95l9.722-2.904 13.75-11.262s12.155-.398 17.106-3.24c4.95-2.842 12.914-10.927 12.914-10.927s10.542-3.897 15.123-7.556l17.892-1.309 26.303 2.886c14.57-3.619 47.019-19.572 44.198-19.625 20.96 2.173 40.227-5.106 47.197-13.349 29.852 1.702 54.819-3.147 76.281-12.696 3.203 4.812 93.012.713 97.073-3.506l23.544 4.349s19.267 8.13 44.196 8.624c0 0 64.822-24.149 90.999-39.471 0 0 78.805 12.527 125.14 9.513z" style="fill:#a33f1b"/><clipPath id="b"><path d="M970.388 284.905H308.95l9.722-2.904 13.75-11.262s12.155-.398 17.106-3.24c4.95-2.842 12.914-10.927 12.914-10.927s10.542-3.897 15.123-7.556l17.892-1.309 26.303 2.886c14.57-3.619 47.019-19.572 44.198-19.625 20.96 2.173 40.227-5.106 47.197-13.349 29.852 1.702 54.819-3.147 76.281-12.696 3.203 4.812 93.012.713 97.073-3.506l23.544 4.349s19.267 8.13 44.196 8.624c0 0 64.822-24.149 90.999-39.471 0 0 78.805 12.527 125.14 9.513z"/></clipPath><g clip-path="url(#b)"><path d="M329.324 268.311s8.09 5.156 21.304 0 14.128-7.819 14.128-7.819l-4.099 6.301s6.69-4.439 10.17-8.892c3.48-4.454 7.02-10.25 7.02-10.25zM420.301 250.337l30.701 3.969-14.716-4.729s8.451-2.19 15.878-6.089l-3.473 3.481s15.619-7.908 17.726-17.057-46.116 20.425-46.116 20.425M486.768 228.156s11.275 1.362 21.976-3.093c0 0-9.603 6.714-10.237 7.012s11.249-3.919 18.514-11.291 1.16-7.586 1.16-7.586z" style="fill:#b34512"/></g></g></svg>