<svg xmlns="http://www.w3.org/2000/svg" xml:space="preserve" style="fill-rule:evenodd;clip-rule:evenodd;stroke-linejoin:round;stroke-miterlimit:2" viewBox="0 0 970 540"><path d="M.002 0h970v540h-970z" style="fill:none"/><path d="M241.604 239.945s23.168-3.808 45.957-25.135c0 0 13.852 1.268 21.407-.42 0 0 16.186-10.535 18.909-12.358 0 0 18.704-.179 35.163-6.026 16.46-5.847 26.499-12.064 26.499-12.064l12.794 8.087 14.073-3.147s19.934 14.313 38.717 16.638c18.782 2.324 33.575 2.107 33.575 2.107l12.392 9.067s12.628-.481 20.186-.791l18.283 6.584 12.034-1.664s108.437 58.58 182.439 64.082H241.604z" style="fill:#ec811b"/><path d="M324.057 249.421a578 578 0 0 0 3.82-2.514s18.704-.179 35.163-6.026c16.46-5.848 26.499-12.064 26.499-12.064l3.764 2.379c-11.228 13.402-27.051 18.742-27.051 18.742l5.699 2.979s-17.838 6.334-30.432 4.181c-9.915-1.694-15.283-5.657-17.462-7.677" style="fill:#f8971b"/></svg>