<?xml version="1.0" encoding="UTF-8" standalone="no"?><!DOCTYPE svg PUBLIC "-//W3C//DTD SVG 1.1//EN" "http://www.w3.org/Graphics/SVG/1.1/DTD/svg11.dtd"><svg width="100%" height="100%" viewBox="0 0 971 540" version="1.1" xmlns="http://www.w3.org/2000/svg" xmlns:xlink="http://www.w3.org/1999/xlink" xml:space="preserve" xmlns:serif="http://www.serif.com/" style="fill-rule:evenodd;clip-rule:evenodd;stroke-linejoin:round;stroke-miterlimit:2;"><rect id="sea" x="0.249" y="0" width="970" height="540" style="fill:none;"/><clipPath id="_clip1"><rect x="0.249" y="0" width="970" height="540"/></clipPath><g clip-path="url(#_clip1)"><g><g><rect x="0.249" y="285.135" width="970" height="255.095" style="fill:url(#_Linear2);"/><rect x="0.249" y="282.968" width="970" height="257.261" style="fill:url(#_Linear3);"/></g><g><path d="M387.878,314.39c-0,0 71.503,5.847 107.262,11.236c0,0 26.541,-0.771 46.355,4.381c0,-0 25.201,-4.657 37.756,-5.314c12.555,-0.657 13.342,0.153 18.902,-0.121c5.561,-0.274 12.378,0.133 18.803,1.04c6.425,0.906 29.937,-5.901 49.395,-6.325c19.458,-0.425 37.743,1.681 43.178,1.527c5.435,-0.154 10.83,-2.019 26.807,-1.336c15.977,0.682 41.262,3.765 43.58,3.592c2.317,-0.173 13.729,-3.452 17.158,-2.999c3.429,0.452 11.013,1.165 11.013,1.165c-0,-0 20.931,-4.888 52.591,-8.105l2.517,-27.996l-482.263,-0l6.946,29.255Z" style="fill:#ffaf1b;"/><path d="M283.359,305.981c0,-0 19.248,1.765 38.18,11.654c-0,-0 11.507,-0.588 17.784,0.194c-0,0 13.446,4.885 15.708,5.73c0,-0 15.539,0.083 29.213,2.794c13.674,2.711 22.013,5.593 22.013,5.593l10.63,-3.749l11.691,1.459c0,0 16.56,-6.636 32.164,-7.714c15.603,-1.078 27.893,-0.977 27.893,-0.977l10.295,-4.204c0,-0 10.491,0.223 16.77,0.367l15.189,-3.053l9.996,0.772c0,-0 90.086,-27.161 151.564,-29.712l-409.09,-0l0,20.846Z" style="fill:#f4921b;"/><path d="M25.969,285.135l497.463,-0c0,-0 -67.604,13.444 -79.999,18.445c-0,-0 -55.245,5.038 -71.365,6.126c-16.119,1.088 -76.709,10.146 -76.709,10.146c-0,-0 -69.687,-7.436 -92.597,-7.711l-50.858,-10.241c-21.857,-1.475 -38.841,-2.025 -54.691,-2.36c-30.679,-8.49 -50.223,-11.055 -71.244,-14.405Z" style="fill:#ec811b;"/><path d="M970.249,285.135l-661.438,-0l9.721,1.085l13.751,4.208c0,0 12.155,0.149 17.105,1.211c4.951,1.062 12.915,4.083 12.915,4.083c-0,0 10.542,1.456 15.123,2.824l17.892,0.489l26.303,-1.079c14.57,1.353 47.019,7.314 44.198,7.334c20.96,-0.812 40.226,1.908 47.196,4.988c29.853,-0.636 54.82,1.176 76.281,4.744c3.204,-1.798 93.013,-0.266 97.074,1.31l23.543,-1.625c0,0 19.267,-3.038 44.196,-3.222c0,-0 64.823,9.023 91,14.749c-0,-0 78.805,-4.681 125.14,-3.555l0,-37.544Z" style="fill:#d66e1c;"/><path d="M970.249,311.788c-18.853,-0.755 -35.644,-0.438 -51.359,0.439c-20.386,-2.505 -41.289,-4.76 -62.609,-6.812c-0,0 -47.444,-0.209 -46.653,0c-16.659,-4.092 -30.208,-6.237 -42.856,-7.82c-35.357,-1.626 -57.252,-1.972 -78.52,-2.259c0,0 -64.794,-9.422 -93.75,-10.201l375.747,-0l0,26.653Z" style="fill:#9a3a1b;"/></g><g><ellipse cx="316.005" cy="343.768" rx="34.63" ry="17.359" style="fill:#ffe371;fill-opacity:0.27;"/><ellipse cx="316.005" cy="343.768" rx="31.463" ry="15.771" style="fill:#ffe371;fill-opacity:0.27;"/><ellipse cx="316.005" cy="343.768" rx="28.295" ry="14.183" style="fill:#ffe371;fill-opacity:0.44;"/><ellipse cx="316.005" cy="343.768" rx="25.907" ry="12.986" style="fill:#ffe371;"/></g><g><g><path d="M97.175,286.953l0.022,2.21l-3.938,2.526l-45.454,-0l-0,-5.889l7.353,0.017l1.905,1.04l40.112,0.096Z" style="fill:#7a271b;"/><path d="M92.806,280.82l3.116,8.031l-11.485,-0l0,-8.031l8.369,-0Z" style="fill:#7a271b;"/><rect x="78.24" y="280.229" width="1.819" height="8.031" style="fill:#7a271b;"/><rect x="89.49" y="278.641" width="1.819" height="8.031" style="fill:#7a271b;"/><rect x="63.732" y="280.229" width="1.819" height="8.031" style="fill:#7a271b;"/><rect x="70.986" y="280.229" width="1.819" height="8.031" style="fill:#7a271b;"/><rect x="56.478" y="280.229" width="1.819" height="8.031" style="fill:#7a271b;"/><path d="M79.617,283.31l-8.046,-0l-0,-1.306l8.046,0l-0,1.306Z" style="fill:#7a271b;"/><path d="M90.18,282.004l-8.046,0l-0,-1.305l8.046,-0l-0,1.305Z" style="fill:#7a271b;"/><path d="M65.109,283.31l-8.046,-0l0,-1.306l8.046,0l-0,1.306Z" style="fill:#7a271b;"/></g><rect x="47.805" y="291.689" width="45.816" height="5.813" style="fill:url(#_Linear4);"/></g><g><g><path d="M153.732,281.479l0.017,1.72l-3.066,1.966l-35.381,0l-0,-4.584l5.723,0.014l1.484,0.809l31.223,0.075Z" style="fill:#7a271b;"/><path d="M150.331,276.705l2.425,6.251l-8.94,0l0,-6.251l6.515,-0Z" style="fill:#7a271b;"/><rect x="147.749" y="275.009" width="1.416" height="6.252" style="fill:#7a271b;"/><path d="M148.286,277.627l-6.262,-0l-0,-1.017l6.262,0l0,1.017Z" style="fill:#7a271b;"/></g><rect x="115.302" y="285.114" width="35.913" height="5.813" style="fill:url(#_Linear5);"/></g><g><g><path d="M292.473,301.656l0.026,2.65l-4.723,3.028l-54.505,0l-0,-7.061l8.817,0.021l2.285,1.246l48.1,0.116Z" style="fill:#7a271b;"/><path d="M287.233,294.301l3.737,9.63l-13.772,0l0,-9.63l10.035,-0Z" style="fill:#7a271b;"/><rect x="269.766" y="293.592" width="2.181" height="9.631" style="fill:#7a271b;"/><rect x="283.257" y="291.689" width="2.181" height="9.631" style="fill:#7a271b;"/><rect x="252.37" y="293.592" width="2.181" height="9.631" style="fill:#7a271b;"/><rect x="261.068" y="293.592" width="2.181" height="9.631" style="fill:#7a271b;"/><rect x="243.671" y="293.592" width="2.181" height="9.631" style="fill:#7a271b;"/><path d="M271.417,297.287l-9.647,-0l-0,-1.566l9.647,0l0,1.566Z" style="fill:#7a271b;"/><path d="M284.084,295.721l-9.648,0l0,-1.565l9.648,-0l-0,1.565Z" style="fill:#7a271b;"/><path d="M254.021,297.287l-9.648,-0l0,-1.566l9.648,0l-0,1.566Z" style="fill:#7a271b;"/></g><rect x="233.271" y="307.287" width="54.757" height="5.813" style="fill:url(#_Linear6);"/></g><g><rect x="187.82" y="285.114" width="38.465" height="5.813" style="fill:url(#_Linear7);"/><g><path d="M187.923,281.786l-2.508,0l-0,-6.655l40.871,-0l-0,6.655l-3.84,3.328l-34.523,0l-0,-3.328Z" style="fill:#7a271b;"/><rect x="196.654" y="271.867" width="4.355" height="5.287" style="fill:#7a271b;"/><rect x="198.831" y="273.18" width="20.662" height="3.036" style="fill:#7a271b;"/><rect x="209.162" y="270.81" width="2.799" height="3.888" style="fill:#7a271b;"/><rect x="213.617" y="270.81" width="2.799" height="3.888" style="fill:#7a271b;"/></g></g></g></g><defs><linearGradient id="_Linear2" x1="0" y1="0" x2="1" y2="0" gradientUnits="userSpaceOnUse" gradientTransform="matrix(5.68617e-15,-93.9409,92.8622,5.75222e-15,492.807,402.521)"><stop offset="0" style="stop-color:#fbbc23;stop-opacity:1"/><stop offset="1" style="stop-color:#ffe373;stop-opacity:1"/></linearGradient><linearGradient id="_Linear3" x1="0" y1="0" x2="1" y2="0" gradientUnits="userSpaceOnUse" gradientTransform="matrix(-1.09948e-13,-132.957,94.7312,-7.83376e-14,485.249,411.599)"><stop offset="0" style="stop-color:#adf2ff;stop-opacity:0.46"/><stop offset="0.48" style="stop-color:#c0d8c2;stop-opacity:0.34"/><stop offset="1" style="stop-color:#f4921b;stop-opacity:0.01"/></linearGradient><linearGradient id="_Linear4" x1="0" y1="0" x2="1" y2="0" gradientUnits="userSpaceOnUse" gradientTransform="matrix(-0.138538,7.58589,-7.58589,-0.138538,74.9125,288.021)"><stop offset="0" style="stop-color:#7a271b;stop-opacity:0.55"/><stop offset="1" style="stop-color:#7a271b;stop-opacity:0.04"/></linearGradient><linearGradient id="_Linear5" x1="0" y1="0" x2="1" y2="0" gradientUnits="userSpaceOnUse" gradientTransform="matrix(-0.184696,6.12663,-6.12663,-0.184696,131.897,282.769)"><stop offset="0" style="stop-color:#7a271b;stop-opacity:0.55"/><stop offset="1" style="stop-color:#7a271b;stop-opacity:0.04"/></linearGradient><linearGradient id="_Linear6" x1="0" y1="0" x2="1" y2="0" gradientUnits="userSpaceOnUse" gradientTransform="matrix(0.302966,8.19591,-8.19591,0.302966,253.547,303.405)"><stop offset="0" style="stop-color:#7a271b;stop-opacity:0.55"/><stop offset="1" style="stop-color:#7a271b;stop-opacity:0.04"/></linearGradient><linearGradient id="_Linear7" x1="0" y1="0" x2="1" y2="0" gradientUnits="userSpaceOnUse" gradientTransform="matrix(0.964713,10.1853,-10.1853,0.964713,206.296,280.479)"><stop offset="0" style="stop-color:#7a271b;stop-opacity:0.55"/><stop offset="1" style="stop-color:#7a271b;stop-opacity:0.04"/></linearGradient></defs></svg>